<svg xmlns="http://www.w3.org/2000/svg" width="200" height="220">
  <title>MyFinances logo</title>
  <g fill="currentColor">
    <path d="M163.993 19.548c-1.967-.829-2.597-1.322-2.597-2.027 0-.798.646-1.257 1.774-1.257.898 0 1.591.403 2.013.743.361.284.86.255 1.134-.066l.922-1.074c.301-.352.277-.903-.052-1.202-.552-.501-1.676-1.35-3.107-1.523v-1.414a.826.826 0 0 0-.827-.825h-1.111a.822.822 0 0 0-.826.825v1.605c-2.294.557-3.659 2.276-3.659 4.62 0 2.835 2.209 4.037 4.134 4.764 1.637.623 2.274 1.197 2.274 2.049 0 .883-.747 1.41-1.997 1.41-1.135 0-2.012-.486-2.816-.985a.83.83 0 0 0-1.13.268l-.866 1.428a.847.847 0 0 0-.097.639c.054.213.186.39.375.502.816.471 2.35 1.26 3.67 1.38v1.583c0 .456.369.826.825.827h1.113a.828.828 0 0 0 .827-.827v-1.78c2.386-.516 3.862-2.344 3.863-4.793 0-2.341-1.15-3.797-3.839-4.87Z" transform="matrix(3.48 0 0 3.48 -489.36 5.567)" vectorEffect="non-scaling-stroke" />
    <path d="M149.516 21.801c-1.798-.76-2.375-1.21-2.375-1.853 0-.73.592-1.15 1.622-1.15.821 0 1.455.371 1.843.678.328.263.784.237 1.035-.059l.842-.98c.276-.322.254-.826-.047-1.1-.503-.458-1.532-1.234-2.841-1.392V14.65a.755.755 0 0 0-.755-.756h-1.015a.748.748 0 0 0-.535.223.752.752 0 0 0-.222.533v1.47c-2.096.51-3.346 2.08-3.346 4.222 0 2.592 2.02 3.69 3.782 4.358 1.494.568 2.079 1.093 2.079 1.872 0 .807-.683 1.29-1.826 1.29-1.037 0-1.84-.445-2.575-.904a.766.766 0 0 0-1.034.248l-.791 1.305a.765.765 0 0 0 .253 1.045c.747.428 2.15 1.152 3.355 1.261v1.445a.76.76 0 0 0 .754.76h1.019c.416 0 .755-.342.755-.76V30.64c2.182-.476 3.532-2.149 3.532-4.388 0-2.138-1.05-3.47-3.509-4.45Z" transform="matrix(3.48 0 0 3.48 -489.447 5.57)" vectorEffect="non-scaling-stroke" />
    <path d="M156.012 6.92c-1.572-.667-2.078-1.062-2.078-1.623 0-.64.517-1.008 1.42-1.008.719 0 1.273.326 1.611.594.287.23.688.208.906-.053l.737-.857c.241-.282.222-.722-.041-.96-.441-.404-1.342-1.08-2.486-1.221V.662a.662.662 0 0 0-.66-.662h-.89a.65.65 0 0 0-.466.195.653.653 0 0 0-.195.468v1.283c-1.835.446-2.927 1.82-2.927 3.697 0 2.266 1.767 3.226 3.308 3.81 1.308.498 1.819.959 1.819 1.639 0 .706-.599 1.127-1.597 1.127-.908 0-1.612-.388-2.254-.788a.665.665 0 0 0-.904.214l-.693 1.142a.679.679 0 0 0-.077.512.635.635 0 0 0 .299.403c.653.375 1.881 1.007 2.935 1.102v1.267c0 .363.296.661.662.662h.888a.662.662 0 0 0 .662-.662v-1.422c1.909-.417 3.09-1.878 3.091-3.838.001-1.87-.918-3.038-3.07-3.891Z" transform="matrix(3.48 0 0 3.48 -489.384 5.502)" vectorEffect="non-scaling-stroke" />
    <path d="M194.371 33.334c-.612-1.137-1.455-2.084-2.268-3-1.319-1.48-2.457-2.76-2.457-4.55 0-.711.156-1.231.337-1.833.22-.727.469-1.552.469-2.766 0-3.131-.716-5.742-2.126-7.761-4.156-5.959-10.855-8.857-20.476-8.857a28.859 28.859 0 0 0-6.205.672 1.08 1.08 0 1 0 .468 2.108 26.72 26.72 0 0 1 5.738-.62c8.863.001 14.982 2.596 18.707 7.934 1.151 1.65 1.734 3.844 1.734 6.524 0 .895-.18 1.501-.375 2.143-.2.668-.43 1.425-.43 2.457 0 2.612 1.596 4.405 3.003 5.986.767.86 1.489 1.673 1.983 2.586.139.26.006.584-.058.712-.138.273-.871.534-1.354.705-.9.319-2.133.755-2.133 2.029 0 1.06.514 1.712.855 2.144.12.153.2.26.253.345a9.459 9.459 0 0 1-.658.098c-.764.096-2.184.273-2.137 1.6.041 1.15 1.161 1.41 1.704 1.517-.046.022-.093.044-.131.066-.628.307-1.681.82-1.681 2.024 0 .554.272 1.081.616 1.748.954 1.851 1.07 2.579-.111 3.232-.831.459-2.276.562-4.42.31a333.98 333.98 0 0 0-3.785-.434c-1.196-.12-2.297.265-3.012 1.06-.717.796-.987 1.93-.741 3.108.227 1.098.308 2.492.157 3.218h-22.566c-.373 0-.535-.104-.569-.162-.034-.054-.053-.248.12-.579.019-.038.491-.95 1.942-4.376 1.192-2.82 1.616-5.747 1.616-7.399 0-2.19-1.506-3.876-3.25-5.827-1.009-1.13-2.053-2.299-2.96-3.715a1.078 1.078 0 0 0-1.492-.324c-.502.32-.648.988-.326 1.49 1 1.563 2.152 2.85 3.168 3.987 1.509 1.689 2.701 3.022 2.701 4.39 0 1.562-.447 4.193-1.445 6.554-1.399 3.306-1.865 4.213-1.869 4.221-.495.953-.514 1.935-.051 2.701.462.761 1.343 1.2 2.415 1.2h22.968c.061 0 .12-.01.178-.018.035.004.071.018.107.018.316 0 .629-.139.843-.405 1.137-1.418.609-4.501.419-5.411-.103-.508-.02-.94.233-1.224.256-.283.681-.409 1.192-.357.014.002.761.078 3.752.431 2.642.312 4.458.131 5.714-.563 3.219-1.777 1.654-4.816.986-6.113-.107-.208-.241-.47-.319-.629.121-.069.288-.152.412-.211.66-.322 1.763-.862 1.763-2.15 0-.51-.164-.885-.404-1.163.627-.258 1.166-.726 1.166-1.616 0-.958-.466-1.546-.807-1.978-.187-.236-.299-.386-.352-.548.183-.083.456-.18.655-.25.908-.32 2.039-.721 2.566-1.773.455-.91.464-1.895.028-2.706Z" transform="matrix(3.48 0 0 3.48 -489.351 5.626)" vectorEffect="non-scaling-stroke" />
  </g>
</svg>
