<svg
  xmlns="http://www.w3.org/2000/svg"
  xmlns:xlink="http://www.w3.org/1999/xlink"
  version="1.1"
  preserveAspectRatio="xMidYMid meet"
  viewBox="0 0 200 220"
  xml:space="preserve"
>
  <desc>Created with Fabric.js 5.2.4</desc>
  <g transform="matrix(3.48 0 0 3.48 76.07 79.9)">
    <path style="stroke: none; stroke-width: 1; stroke-dasharray: none; stroke-linecap: butt; stroke-dashoffset: 0; stroke-linejoin: miter; stroke-miterlimit: 4; fill: currentColor; fill-rule: nonzero; opacity: 1;" vector-effect="non-scaling-stroke" transform=" translate(-162.48, -21.36)" d="M 163.993 19.548 C 162.026 18.7194 161.396 18.226 161.396 17.5214 C 161.396 16.7234 162.042 16.264 163.17 16.264 C 164.068 16.264 164.761 16.6667 165.183 17.0067 C 165.544 17.2914 166.043 17.262 166.317 16.9414 L 167.239 15.8667 C 167.54 15.5147 167.516 14.964 167.187 14.6647 C 166.635 14.164 165.511 13.3154 164.08 13.142 L 164.08 11.728 C 164.08 11.2714 163.709 10.9027 163.253 10.9027 L 162.142 10.9027 C 161.92 10.9027 161.713 10.988 161.557 11.1434 C 161.402 11.3014 161.316 11.508 161.316 11.728 L 161.316 13.3334 C 159.022 13.89 157.657 15.6087 157.657 17.9534 C 157.657 20.788 159.866 21.99 161.791 22.7174 C 163.428 23.34 164.065 23.914 164.065 24.766 C 164.065 25.6487 163.318 26.176 162.068 26.176 C 160.933 26.176 160.056 25.69 159.252 25.1914 C 158.876 24.9547 158.349 25.082 158.122 25.4587 L 157.256 26.8867 C 157.141 27.076 157.105 27.31 157.159 27.526 C 157.213 27.7387 157.345 27.9167 157.534 28.028 C 158.35 28.4994 159.884 29.2887 161.204 29.408 L 161.204 30.9914 C 161.204 31.4467 161.573 31.8167 162.029 31.818 L 163.142 31.818 C 163.598 31.818 163.969 31.4467 163.969 30.9914 L 163.969 29.2114 C 166.355 28.6947 167.831 26.8667 167.832 24.418 C 167.832 22.0767 166.682 20.6207 163.993 19.548 Z" stroke-linecap="round"/>
  </g>
  <g transform="matrix(3.48 0 0 3.48 26.08 87.21)">
    <path style="stroke: none; stroke-width: 1; stroke-dasharray: none; stroke-linecap: butt; stroke-dashoffset: 0; stroke-linejoin: miter; stroke-miterlimit: 4; fill: currentColor; fill-rule: nonzero; opacity: 1;" vector-effect="non-scaling-stroke" transform=" translate(-148.14, -23.46)" d="M 149.516 21.8014 C 147.718 21.0414 147.141 20.5901 147.141 19.9481 C 147.141 19.2174 147.733 18.7974 148.763 18.7974 C 149.584 18.7974 150.218 19.1694 150.606 19.4761 C 150.934 19.7387 151.39 19.7127 151.641 19.4174 L 152.483 18.4367 C 152.759 18.1154 152.737 17.6107 152.436 17.3374 C 151.933 16.8794 150.904 16.1027 149.595 15.9447 L 149.595 14.6514 C 149.595 14.2347 149.258 13.8954 148.84 13.8954 L 147.825 13.8954 C 147.622 13.8954 147.432 13.9747 147.29 14.1181 C 147.148 14.2601 147.068 14.4501 147.068 14.6514 L 147.068 16.1201 C 144.972 16.6301 143.722 18.2007 143.722 20.3434 C 143.722 22.9347 145.742 24.0321 147.504 24.7007 C 148.998 25.2694 149.583 25.7941 149.583 26.5727 C 149.583 27.3801 148.9 27.8621 147.757 27.8621 C 146.72 27.8621 145.917 27.4181 145.182 26.9594 C 144.838 26.7481 144.356 26.8621 144.148 27.2067 L 143.357 28.5121 C 143.251 28.6854 143.219 28.8981 143.269 29.0954 C 143.318 29.2914 143.438 29.4561 143.61 29.5574 C 144.357 29.9854 145.76 30.7087 146.965 30.8181 L 146.965 32.2634 C 146.965 32.6801 147.304 33.0201 147.719 33.0221 L 148.738 33.0221 C 149.154 33.0221 149.493 32.6814 149.493 32.2634 L 149.493 30.6401 C 151.675 30.1641 153.025 28.4914 153.025 26.2521 C 153.025 24.1141 151.975 22.7814 149.516 21.8014 Z" stroke-linecap="round"/>
  </g>
  <g transform="matrix(3.48 0 0 3.48 49.32 34.63)">
    <path style="stroke: none; stroke-width: 1; stroke-dasharray: none; stroke-linecap: butt; stroke-dashoffset: 0; stroke-linejoin: miter; stroke-miterlimit: 4; fill: currentColor; fill-rule: nonzero; opacity: 1;" vector-effect="non-scaling-stroke" transform=" translate(-154.8, -8.37)" d="M 156.012 6.92 C 154.44 6.25267 153.934 5.858 153.934 5.29733 C 153.934 4.65667 154.451 4.28933 155.354 4.28933 C 156.073 4.28933 156.627 4.61467 156.965 4.88333 C 157.252 5.11267 157.653 5.09133 157.871 4.83 L 158.608 3.97267 C 158.849 3.69067 158.83 3.25067 158.567 3.01267 C 158.126 2.60867 157.225 1.93333 156.081 1.792 L 156.081 0.662667 C 156.081 0.296667 155.785 0 155.421 0 L 154.531 0 C 154.355 0 154.188 0.0693332 154.065 0.194667 C 153.939 0.32 153.87 0.484667 153.87 0.662667 L 153.87 1.946 C 152.035 2.392 150.943 3.76667 150.943 5.64267 C 150.943 7.90933 152.71 8.86867 154.251 9.45333 C 155.559 9.95133 156.07 10.412 156.07 11.092 C 156.07 11.798 155.471 12.2187 154.473 12.2187 C 153.565 12.2187 152.861 11.8307 152.219 11.4307 C 151.917 11.242 151.496 11.3447 151.315 11.6453 L 150.622 12.7873 C 150.53 12.94 150.502 13.126 150.545 13.2987 C 150.587 13.4707 150.693 13.6147 150.844 13.702 C 151.497 14.0773 152.725 14.7093 153.779 14.804 L 153.779 16.0707 C 153.779 16.434 154.075 16.732 154.441 16.7333 L 155.329 16.7333 C 155.695 16.7333 155.991 16.436 155.991 16.0707 L 155.991 14.6487 C 157.9 14.232 159.081 12.7707 159.082 10.8107 C 159.083 8.94067 158.164 7.77333 156.012 6.92 Z" stroke-linecap="round"/>
  </g>
  <g transform="matrix(3.48 0 0 3.48 107.26 117.96)">
    <path style="stroke: none; stroke-width: 1; stroke-dasharray: none; stroke-linecap: butt; stroke-dashoffset: 0; stroke-linejoin: miter; stroke-miterlimit: 4; fill: currentColor; fill-rule: nonzero; opacity: 1;" vector-effect="non-scaling-stroke" transform=" translate(-171.44, -32.28)" d="M 194.371 33.334 C 193.759 32.1967 192.916 31.25 192.103 30.3347 C 190.784 28.8534 189.646 27.574 189.646 25.7847 C 189.646 25.0727 189.802 24.5527 189.983 23.9514 C 190.203 23.224 190.452 22.3987 190.452 21.1854 C 190.452 18.054 189.736 15.4434 188.326 13.424 C 184.17 7.46538 177.471 4.56738 167.85 4.56738 C 166.015 4.56738 164.195 4.73872 162.439 5.07472 C 162.172 5.12605 161.908 5.18005 161.645 5.23872 C 161.062 5.36805 160.695 5.94605 160.825 6.52805 C 160.955 7.11005 161.53 7.47938 162.113 7.34738 C 162.356 7.29405 162.6 7.24338 162.846 7.19538 C 164.468 6.88538 166.151 6.72805 167.851 6.72805 C 176.714 6.72805 182.833 9.32272 186.558 14.6607 C 187.709 16.3107 188.292 18.5054 188.292 21.1847 C 188.292 22.08 188.112 22.686 187.917 23.328 C 187.717 23.996 187.487 24.7534 187.487 25.7847 C 187.487 28.3974 189.083 30.19 190.49 31.7714 C 191.257 32.6314 191.979 33.444 192.473 34.3574 C 192.612 34.6174 192.479 34.9414 192.415 35.0687 C 192.277 35.342 191.544 35.6027 191.061 35.774 C 190.161 36.0927 188.928 36.5287 188.928 37.8027 C 188.928 38.8634 189.442 39.5154 189.783 39.9474 C 189.903 40.1 189.983 40.2061 190.036 40.292 C 189.824 40.3347 189.552 40.3687 189.378 40.39 C 188.614 40.486 187.194 40.6627 187.241 41.9894 C 187.282 43.14 188.402 43.3994 188.945 43.5074 C 188.899 43.5294 188.852 43.5514 188.814 43.5727 C 188.186 43.8801 187.133 44.3927 187.133 45.5974 C 187.133 46.1507 187.405 46.678 187.749 47.3447 C 188.703 49.196 188.819 49.924 187.638 50.5774 C 186.807 51.036 185.362 51.1387 183.218 50.8867 C 180.178 50.5294 179.433 50.4534 179.433 50.4534 C 178.237 50.3327 177.136 50.718 176.421 51.5134 C 175.704 52.3087 175.434 53.4427 175.68 54.6214 C 175.907 55.7194 175.988 57.1134 175.837 57.8394 L 153.271 57.8394 C 152.898 57.8394 152.736 57.7347 152.702 57.6774 C 152.668 57.6227 152.649 57.4287 152.822 57.098 C 152.841 57.0601 153.313 56.1487 154.764 52.722 C 155.956 49.9027 156.38 46.9747 156.38 45.3234 C 156.38 43.1327 154.874 41.4474 153.13 39.4961 C 152.121 38.3661 151.077 37.1974 150.17 35.7814 C 149.848 35.2794 149.18 35.1327 148.678 35.4567 C 148.176 35.7767 148.03 36.4454 148.352 36.9474 C 149.352 38.51 150.504 39.7974 151.52 40.934 C 153.029 42.6227 154.221 43.956 154.221 45.3234 C 154.221 46.886 153.774 49.5174 152.776 51.878 C 151.377 55.184 150.911 56.0914 150.907 56.0994 C 150.412 57.052 150.393 58.034 150.856 58.8 C 151.318 59.5614 152.199 60 153.271 60 L 176.239 60 C 176.3 60 176.359 59.9907 176.417 59.982 C 176.452 59.986 176.488 60 176.524 60 C 176.84 60 177.153 59.8614 177.367 59.5954 C 178.504 58.1774 177.976 55.094 177.786 54.184 C 177.683 53.676 177.766 53.2434 178.019 52.96 C 178.275 52.6774 178.7 52.5514 179.211 52.6034 C 179.225 52.6054 179.972 52.6814 182.963 53.034 C 185.605 53.3461 187.421 53.1654 188.677 52.4707 C 191.896 50.694 190.331 47.6554 189.663 46.3581 C 189.556 46.1501 189.422 45.8887 189.344 45.7294 C 189.465 45.66 189.632 45.5767 189.756 45.518 C 190.416 45.196 191.519 44.6561 191.519 43.3674 C 191.519 42.8574 191.355 42.4827 191.115 42.2054 C 191.742 41.9467 192.281 41.4787 192.281 40.5887 C 192.281 39.6307 191.815 39.0427 191.474 38.6107 C 191.287 38.3747 191.175 38.2254 191.122 38.0634 C 191.305 37.98 191.578 37.8834 191.777 37.8134 C 192.685 37.4934 193.816 37.092 194.343 36.04 C 194.798 35.13 194.807 34.1454 194.371 33.334 Z" stroke-linecap="round"/>
  </g>
</svg>
