<svg class="css-ze2te4 css-qd6ojx" viewBox="0 0 30.886254882812498 36"><g transform="translate(-4.557031631469727, -1.9999999999999998) scale(0.39999999999999997)" class="css-1295mot" fill="#191414">
<path xmlns="http://www.w3.org/2000/svg" d="M42.532,34.322c-2.951-1.243-3.897-1.983-3.897-3.04c0-1.197,0.97-1.886,2.662-1.886c1.348,0,2.388,0.604,3.022,1.114  c0.541,0.427,1.29,0.383,1.702-0.098l1.383-1.612c0.452-0.528,0.417-1.354-0.077-1.803c-0.829-0.751-2.516-2.024-4.664-2.284v-2.121  c0-0.685-0.556-1.238-1.241-1.238h-1.668c-0.333,0-0.644,0.128-0.877,0.361c-0.234,0.237-0.363,0.547-0.362,0.877V25  c-3.443,0.835-5.493,3.413-5.493,6.93c0,4.252,3.316,6.055,6.206,7.146c2.456,0.934,3.413,1.795,3.413,3.073  c0,1.324-1.121,2.115-2.997,2.115c-1.704,0-3.021-0.729-4.228-1.477c-0.564-0.355-1.355-0.164-1.696,0.401l-1.299,2.142  c-0.172,0.284-0.227,0.635-0.145,0.959c0.08,0.319,0.278,0.586,0.562,0.753c1.225,0.707,3.528,1.891,5.508,2.07v2.375  c0,0.683,0.554,1.238,1.239,1.24h1.671c0.684,0,1.24-0.557,1.24-1.24v-2.67c3.581-0.775,5.797-3.517,5.798-7.19  C48.294,38.115,46.568,35.931,42.532,34.322z"></path><path xmlns="http://www.w3.org/2000/svg" d="M20.803,37.702c-2.698-1.14-3.564-1.817-3.564-2.78c0-1.096,0.889-1.726,2.435-1.726c1.232,0,2.183,0.558,2.765,1.018  c0.493,0.394,1.178,0.355,1.554-0.088l1.264-1.471c0.414-0.482,0.381-1.239-0.07-1.649c-0.756-0.687-2.3-1.852-4.264-2.089v-1.94  c0-0.625-0.507-1.134-1.134-1.134h-1.524c-0.304,0-0.589,0.119-0.803,0.334c-0.213,0.213-0.332,0.498-0.332,0.8v2.203  c-3.147,0.765-5.022,3.121-5.022,6.335c0,3.887,3.031,5.533,5.676,6.536c2.243,0.853,3.12,1.64,3.12,2.808  c0,1.211-1.025,1.934-2.741,1.934c-1.556,0-2.761-0.666-3.864-1.354c-0.517-0.317-1.24-0.146-1.552,0.371l-1.187,1.958  c-0.159,0.26-0.208,0.579-0.133,0.875c0.074,0.294,0.254,0.541,0.513,0.693c1.121,0.642,3.226,1.727,5.035,1.891v2.168  c0,0.625,0.508,1.135,1.132,1.138h1.529c0.625,0,1.133-0.511,1.133-1.138V50.96c3.275-0.714,5.301-3.223,5.302-6.582  C26.071,41.171,24.494,39.172,20.803,37.702z"></path><path xmlns="http://www.w3.org/2000/svg" d="M30.553,15.38c-2.359-1.001-3.118-1.593-3.118-2.434c0-0.961,0.776-1.512,2.131-1.512c1.079,0,1.911,0.488,2.418,0.891  c0.431,0.344,1.032,0.312,1.36-0.08l1.106-1.286c0.362-0.423,0.333-1.083-0.062-1.44c-0.662-0.606-2.013-1.619-3.73-1.831V5.994  C30.658,5.445,30.213,5,29.667,5h-1.336c-0.265,0-0.515,0.104-0.7,0.292c-0.188,0.188-0.293,0.435-0.292,0.702l-0.001,1.925  c-2.754,0.669-4.392,2.731-4.392,5.545c0,3.4,2.651,4.839,4.965,5.716c1.963,0.747,2.729,1.438,2.729,2.458  c0,1.059-0.898,1.69-2.396,1.69c-1.363,0-2.419-0.582-3.383-1.182c-0.453-0.283-1.085-0.129-1.357,0.322l-1.04,1.713  c-0.139,0.229-0.181,0.508-0.116,0.767c0.063,0.258,0.223,0.474,0.449,0.605c0.98,0.563,2.823,1.511,4.405,1.653v1.9  c0,0.545,0.444,0.992,0.993,0.994h1.334c0.549,0,0.993-0.446,0.993-0.994v-2.133c2.866-0.625,4.638-2.817,4.639-5.757  C35.163,18.411,33.784,16.66,30.553,15.38z"></path><path xmlns="http://www.w3.org/2000/svg" d="M88.128,55.001c-0.919-1.706-2.185-3.126-3.405-4.499c-1.979-2.222-3.688-4.141-3.688-6.825c0-1.068,0.234-1.848,0.507-2.75  c0.329-1.091,0.703-2.329,0.703-4.149c0-4.697-1.074-8.613-3.19-11.642c-6.238-8.938-16.293-13.285-30.733-13.285  c-2.754,0-5.487,0.257-8.122,0.761c-0.4,0.077-0.797,0.158-1.192,0.246c-0.874,0.194-1.425,1.061-1.23,1.934  c0.194,0.873,1.058,1.427,1.933,1.229c0.365-0.08,0.731-0.156,1.1-0.228c2.434-0.465,4.961-0.701,7.512-0.701  c13.302,0,22.487,3.892,28.077,11.899c1.729,2.475,2.604,5.767,2.604,9.786c0,1.343-0.271,2.252-0.563,3.215  c-0.301,1.002-0.646,2.138-0.646,3.685c0,3.919,2.396,6.608,4.508,8.98c1.15,1.29,2.234,2.509,2.975,3.879  c0.209,0.39,0.01,0.876-0.086,1.067c-0.207,0.41-1.307,0.801-2.032,1.058c-1.351,0.478-3.202,1.132-3.202,3.043  c0,1.591,0.771,2.569,1.283,3.217c0.18,0.229,0.301,0.388,0.38,0.517c-0.318,0.064-0.726,0.115-0.988,0.147  c-1.146,0.144-3.278,0.409-3.207,2.399c0.062,1.726,1.742,2.115,2.558,2.277c-0.07,0.033-0.14,0.066-0.197,0.098  c-0.943,0.461-2.523,1.23-2.523,3.037c0,0.83,0.408,1.621,0.924,2.621c1.432,2.777,1.607,3.869-0.166,4.849  c-1.248,0.688-3.416,0.842-6.634,0.464c-4.563-0.536-5.68-0.65-5.681-0.65c-1.795-0.181-3.448,0.397-4.521,1.59  c-1.076,1.193-1.482,2.894-1.113,4.662c0.342,1.647,0.463,3.738,0.236,4.827H26.44c-0.56,0-0.804-0.157-0.855-0.243  c-0.051-0.082-0.079-0.373,0.18-0.869c0.029-0.057,0.737-1.424,2.915-6.564c1.79-4.229,2.426-8.621,2.426-11.098  c0-3.286-2.26-5.814-4.878-8.741c-1.515-1.695-3.081-3.448-4.443-5.572c-0.483-0.753-1.485-0.973-2.239-0.487  c-0.753,0.48-0.973,1.483-0.49,2.236c1.501,2.344,3.23,4.275,4.756,5.98c2.264,2.533,4.053,4.533,4.053,6.584  c0,2.344-0.671,6.291-2.169,9.832c-2.099,4.959-2.798,6.32-2.804,6.332c-0.744,1.429-0.772,2.902-0.077,4.051  C23.509,94.342,24.83,95,26.44,95h34.473c0.091,0,0.18-0.014,0.267-0.027C61.232,94.979,61.286,95,61.34,95  c0.475,0,0.944-0.208,1.266-0.607c1.707-2.127,0.914-6.752,0.629-8.117c-0.155-0.762-0.031-1.411,0.35-1.836  c0.383-0.424,1.021-0.613,1.789-0.535c0.02,0.003,1.141,0.117,5.631,0.646c3.965,0.468,6.691,0.197,8.576-0.845  c4.832-2.665,2.482-7.223,1.48-9.169c-0.16-0.312-0.361-0.704-0.478-0.943c0.181-0.104,0.431-0.229,0.618-0.317  c0.99-0.483,2.646-1.293,2.646-3.226c0-0.765-0.246-1.327-0.607-1.743c0.941-0.388,1.75-1.09,1.75-2.425  c0-1.437-0.699-2.319-1.211-2.967c-0.28-0.354-0.449-0.578-0.528-0.821c0.274-0.125,0.685-0.27,0.983-0.375  c1.363-0.48,3.06-1.082,3.852-2.66C88.768,57.695,88.782,56.218,88.128,55.001z"></path></g>
</svg>
