<svg width="310" height="60" viewBox="0 0 310 60" fill="none" xmlns="http://www.w3.org/2000/svg">
<g clip-path="url(#clip0_43219_1160)">
<path d="M0 60L10.5685 0H17.3144L18.5886 37.5H19.3382L33.8043 0H40.5502L29.9817 60H22.4862L27.733 30L17.1645 60H12.6672L12.7422 30L7.49541 60H0ZM43.0986 60L47.6708 33.9L45.0474 0H52.5429L52.9926 23.1H53.7421L62.2869 0H69.7823L55.1662 33.9L50.594 60H43.0986ZM63.711 60L74.2795 0H90.0199L88.9706 6H80.7256L76.753 28.5H83.4989L82.4496 34.5H75.7037L71.2064 60H63.711ZM84.6982 60L95.2667 0H102.762L92.1936 60H84.6982ZM99.689 60L110.258 0H117.003L120.376 36.75V36L126.747 0H134.243L123.674 60H116.928L112.956 27L112.881 27.75L107.184 60H99.689Z" fill="#191414"/>
<path d="M163.993 19.548C162.026 18.7194 161.396 18.226 161.396 17.5214C161.396 16.7234 162.042 16.264 163.17 16.264C164.068 16.264 164.761 16.6667 165.183 17.0067C165.544 17.2914 166.043 17.262 166.317 16.9414L167.239 15.8667C167.54 15.5147 167.516 14.964 167.187 14.6647C166.635 14.164 165.511 13.3154 164.08 13.142V11.728C164.08 11.2714 163.709 10.9027 163.253 10.9027H162.142C161.92 10.9027 161.713 10.988 161.557 11.1434C161.402 11.3014 161.316 11.508 161.316 11.728V13.3334C159.022 13.89 157.657 15.6087 157.657 17.9534C157.657 20.788 159.866 21.99 161.791 22.7174C163.428 23.34 164.065 23.914 164.065 24.766C164.065 25.6487 163.318 26.176 162.068 26.176C160.933 26.176 160.056 25.69 159.252 25.1914C158.876 24.9547 158.349 25.082 158.122 25.4587L157.256 26.8867C157.141 27.076 157.105 27.31 157.159 27.526C157.213 27.7387 157.345 27.9167 157.534 28.028C158.35 28.4994 159.884 29.2887 161.204 29.408V30.9914C161.204 31.4467 161.573 31.8167 162.029 31.818H163.142C163.598 31.818 163.969 31.4467 163.969 30.9914V29.2114C166.355 28.6947 167.831 26.8667 167.832 24.418C167.832 22.0767 166.682 20.6207 163.993 19.548Z" fill="#191414"/>
<path d="M149.516 21.8014C147.718 21.0414 147.141 20.5901 147.141 19.9481C147.141 19.2174 147.733 18.7974 148.763 18.7974C149.584 18.7974 150.218 19.1694 150.606 19.4761C150.934 19.7387 151.39 19.7127 151.641 19.4174L152.483 18.4367C152.759 18.1154 152.737 17.6107 152.436 17.3374C151.933 16.8794 150.904 16.1027 149.595 15.9447V14.6514C149.595 14.2347 149.258 13.8954 148.84 13.8954H147.825C147.622 13.8954 147.432 13.9747 147.29 14.1181C147.148 14.2601 147.068 14.4501 147.068 14.6514V16.1201C144.972 16.6301 143.722 18.2007 143.722 20.3434C143.722 22.9347 145.742 24.0321 147.504 24.7007C148.998 25.2694 149.583 25.7941 149.583 26.5727C149.583 27.3801 148.9 27.8621 147.757 27.8621C146.72 27.8621 145.917 27.4181 145.182 26.9594C144.838 26.7481 144.356 26.8621 144.148 27.2067L143.357 28.5121C143.251 28.6854 143.219 28.8981 143.269 29.0954C143.318 29.2914 143.438 29.4561 143.61 29.5574C144.357 29.9854 145.76 30.7087 146.965 30.8181V32.2634C146.965 32.6801 147.304 33.0201 147.719 33.0221H148.738C149.154 33.0221 149.493 32.6814 149.493 32.2634V30.6401C151.675 30.1641 153.025 28.4914 153.025 26.2521C153.025 24.1141 151.975 22.7814 149.516 21.8014Z" fill="#191414"/>
<path d="M156.012 6.92C154.44 6.25267 153.934 5.858 153.934 5.29733C153.934 4.65667 154.451 4.28933 155.354 4.28933C156.073 4.28933 156.627 4.61467 156.965 4.88333C157.252 5.11267 157.653 5.09133 157.871 4.83L158.608 3.97267C158.849 3.69067 158.83 3.25067 158.567 3.01267C158.126 2.60867 157.225 1.93333 156.081 1.792V0.662667C156.081 0.296667 155.785 0 155.421 0H154.531C154.355 0 154.188 0.0693332 154.065 0.194667C153.939 0.32 153.87 0.484667 153.87 0.662667L153.87 1.946C152.035 2.392 150.943 3.76667 150.943 5.64267C150.943 7.90933 152.71 8.86867 154.251 9.45333C155.559 9.95133 156.07 10.412 156.07 11.092C156.07 11.798 155.471 12.2187 154.473 12.2187C153.565 12.2187 152.861 11.8307 152.219 11.4307C151.917 11.242 151.496 11.3447 151.315 11.6453L150.622 12.7873C150.53 12.94 150.502 13.126 150.545 13.2987C150.587 13.4707 150.693 13.6147 150.844 13.702C151.497 14.0773 152.725 14.7093 153.779 14.804V16.0707C153.779 16.434 154.075 16.732 154.441 16.7333H155.329C155.695 16.7333 155.991 16.436 155.991 16.0707V14.6487C157.9 14.232 159.081 12.7707 159.082 10.8107C159.083 8.94067 158.164 7.77333 156.012 6.92Z" fill="#191414"/>
<path d="M194.371 33.334C193.759 32.1967 192.916 31.25 192.103 30.3347C190.784 28.8534 189.646 27.574 189.646 25.7847C189.646 25.0727 189.802 24.5527 189.983 23.9514C190.203 23.224 190.452 22.3987 190.452 21.1854C190.452 18.054 189.736 15.4434 188.326 13.424C184.17 7.46538 177.471 4.56738 167.85 4.56738C166.015 4.56738 164.195 4.73872 162.439 5.07472C162.172 5.12605 161.908 5.18005 161.645 5.23872C161.062 5.36805 160.695 5.94605 160.825 6.52805C160.955 7.11005 161.53 7.47938 162.113 7.34738C162.356 7.29405 162.6 7.24338 162.846 7.19538C164.468 6.88538 166.151 6.72805 167.851 6.72805C176.714 6.72805 182.833 9.32272 186.558 14.6607C187.709 16.3107 188.292 18.5054 188.292 21.1847C188.292 22.08 188.112 22.686 187.917 23.328C187.717 23.996 187.487 24.7534 187.487 25.7847C187.487 28.3974 189.083 30.19 190.49 31.7714C191.257 32.6314 191.979 33.444 192.473 34.3574C192.612 34.6174 192.479 34.9414 192.415 35.0687C192.277 35.342 191.544 35.6027 191.061 35.774C190.161 36.0927 188.928 36.5287 188.928 37.8027C188.928 38.8634 189.442 39.5154 189.783 39.9474C189.903 40.1 189.983 40.2061 190.036 40.292C189.824 40.3347 189.552 40.3687 189.378 40.39C188.614 40.486 187.194 40.6627 187.241 41.9894C187.282 43.14 188.402 43.3994 188.945 43.5074C188.899 43.5294 188.852 43.5514 188.814 43.5727C188.186 43.8801 187.133 44.3927 187.133 45.5974C187.133 46.1507 187.405 46.678 187.749 47.3447C188.703 49.196 188.819 49.924 187.638 50.5774C186.807 51.036 185.362 51.1387 183.218 50.8867C180.178 50.5294 179.433 50.4534 179.433 50.4534C178.237 50.3327 177.136 50.718 176.421 51.5134C175.704 52.3087 175.434 53.4427 175.68 54.6214C175.907 55.7194 175.988 57.1134 175.837 57.8394H153.271C152.898 57.8394 152.736 57.7347 152.702 57.6774C152.668 57.6227 152.649 57.4287 152.822 57.098C152.841 57.0601 153.313 56.1487 154.764 52.722C155.956 49.9027 156.38 46.9747 156.38 45.3234C156.38 43.1327 154.874 41.4474 153.13 39.4961C152.121 38.3661 151.077 37.1974 150.17 35.7814C149.848 35.2794 149.18 35.1327 148.678 35.4567C148.176 35.7767 148.03 36.4454 148.352 36.9474C149.352 38.51 150.504 39.7974 151.52 40.934C153.029 42.6227 154.221 43.956 154.221 45.3234C154.221 46.886 153.774 49.5174 152.776 51.878C151.377 55.184 150.911 56.0914 150.907 56.0994C150.412 57.052 150.393 58.034 150.856 58.8C151.318 59.5614 152.199 60 153.271 60H176.239C176.3 60 176.359 59.9907 176.417 59.982C176.452 59.986 176.488 60 176.524 60C176.84 60 177.153 59.8614 177.367 59.5954C178.504 58.1774 177.976 55.094 177.786 54.184C177.683 53.676 177.766 53.2434 178.019 52.96C178.275 52.6774 178.7 52.5514 179.211 52.6034C179.225 52.6054 179.972 52.6814 182.963 53.034C185.605 53.3461 187.421 53.1654 188.677 52.4707C191.896 50.694 190.331 47.6554 189.663 46.3581C189.556 46.1501 189.422 45.8887 189.344 45.7294C189.465 45.66 189.632 45.5767 189.756 45.518C190.416 45.196 191.519 44.6561 191.519 43.3674C191.519 42.8574 191.355 42.4827 191.115 42.2054C191.742 41.9467 192.281 41.4787 192.281 40.5887C192.281 39.6307 191.815 39.0427 191.474 38.6107C191.287 38.3747 191.175 38.2254 191.122 38.0634C191.305 37.98 191.578 37.8834 191.777 37.8134C192.685 37.4934 193.816 37.092 194.343 36.04C194.798 35.13 194.807 34.1454 194.371 33.334Z" fill="#191414"/>
<path d="M203.209 59.2683L213.52 0.731707H220.101L223.392 36.5854V35.8537L229.607 0.731707H236.92L226.609 59.2683H220.028L216.152 27.0732L216.079 27.8049L210.522 59.2683H203.209ZM238.602 28.4634C242.185 8.04878 243.648 0 253.885 0C261.417 0 262.66 4.60975 261.198 15.6585H254.397C255.494 7.68292 255.055 5.85366 252.862 5.85366C249.498 5.85366 248.84 9.43902 245.476 28.4634C241.746 49.6097 241.234 52.6829 244.598 52.6829C247.011 52.6829 248.035 50.8537 249.863 41.4146H256.737C253.885 54.9512 251.18 60 243.282 60C233.044 60 234.507 51.878 238.602 28.4634ZM258.712 59.2683L269.022 0.731707H285.841L284.818 6.58536H275.311L271.947 25.6098H279.991L278.967 31.4634H270.924L267.34 51.9512H276.847L275.531 59.2683H258.712ZM282.331 41.4146H289.717C288.181 50.8537 288.62 52.6829 291.253 52.6829C294.836 52.6829 295.348 49.6829 296.737 41.7073C298.785 30 283.794 33.1463 286.499 17.561C288.108 8.41463 289.644 0 300.613 0C308.73 0 310.119 4.60975 308.657 15.6585H301.344C302.441 7.68292 301.929 5.85366 299.589 5.85366C296.006 5.85366 295.275 9.80488 293.885 17.561C291.911 28.9024 307.194 24.878 304.196 41.7073C302.441 51.9512 300.978 60 289.936 60C281.454 60 280.357 54.9512 282.331 41.4146Z" fill="#191414"/>
</g>
<defs>
<clipPath id="clip0_43219_1160">
<rect width="309.167" height="60" fill="white"/>
</clipPath>
</defs>
</svg>
